<svg version="1.2" baseProfile="tiny" viewBox="0 0 100.0 109.28" xmlns:xlink="http://www.w3.org/1999/xlink" xmlns="http://www.w3.org/2000/svg">
<path style="fill:#ffffff;" d="M90.224,102.3211L90.224,104.1395L88.637,104.1395L88.637,105.7929C88.637,106.4409,88.156,106.9665,87.562,106.9665L12.168,106.9665L12.168,106.9665C11.574,106.9665,11.092,106.4409,11.092,105.7929L11.092,104.1395L9.196,104.1395L9.196,104.1395L9.196,102.3211L11.093,102.3211L11.093,100.6545C11.093,100.0065,11.575,99.482,12.169,99.482L87.563,99.482C88.156,99.482,88.637,100.0065,88.637,100.6545L88.637,102.3211L90.224,102.3211L90.224,102.3211L90.224,102.3211M90.225,90.1855L88.637,90.1855L88.637,88.519C88.637,87.871,88.156,87.3464,87.563,87.3464L12.168,87.3464L12.168,87.3464C11.574,87.3464,11.092,87.871,11.092,88.519L11.092,90.1855L9.196,90.1855L9.196,92.0039L9.196,92.0039L11.093,92.0039L11.093,94.3065C11.093,94.3065,11.575,94.8299,12.169,94.8299L87.562,94.8299C88.156,94.8299,88.637,94.3065,88.637,93.6595L88.637,92.0039L90.224,90.1855L90.225,90.1855L90.225,90.1855M90.225,78.0478L88.637,78.0478L88.637,76.3834C88.637,75.7332,88.156,75.2076,87.563,75.2076L12.169,75.2087C11.575,75.2087,11.093,75.7354,11.093,76.3834L11.093,78.0478L9.196,78.0478L9.196,78.0478L9.196,79.8662L11.093,79.8662L11.093,81.5218C11.093,82.1687,11.575,82.6944,12.169,82.6944L87.562,82.6944C88.156,82.6944,88.637,82.1687,88.637,81.5218L88.637,79.8662L90.224,79.8662L90.225,78.0478L90.225,78.0478M90.225,65.9122L88.637,65.9122L88.637,64.2457C88.637,63.5966,88.156,63.072,87.563,63.072L12.168,63.072L12.168,63.072C11.574,63.072,11.092,63.5966,11.092,64.2457L11.092,65.9122L9.196,65.9122L9.196,67.7296L9.196,67.7296L11.093,67.7296L11.093,69.3852C11.093,70.0332,11.575,70.5577,12.169,70.5577L87.562,70.5577C88.156,70.5577,88.637,70.0332,88.637,69.3852L88.637,67.7296L90.224,67.7296L90.225,65.9122L90.225,65.9122M90.225,53.7745L88.637,53.7745L88.637,52.108C88.637,51.4599,88.156,50.9354,87.563,50.9354L12.168,50.9354L12.168,50.9354C11.574,50.9354,11.092,51.4599,11.092,52.108L11.092,53.7745L9.196,53.7745L9.196,55.5929L9.196,55.5929L11.093,55.5929L11.093,57.2485C11.093,57.8965,11.575,58.4211,12.169,58.4211L87.562,58.4211C88.156,58.4211,88.637,57.8965,88.637,57.2485L88.637,55.5929L90.224,55.5929L90.225,53.7745L90.225,53.7745M90.225,41.6379L88.637,41.6379L88.637,39.9724C88.637,39.3244,88.156,38.7988,87.563,38.7988L12.168,38.7988L12.168,38.7988C11.574,38.7988,11.092,39.3244,11.092,39.9724L11.092,41.6379L9.196,41.6379L9.196,43.4563L9.196,43.4563L11.093,43.4563L11.093,45.1108C11.093,45.7588,11.575,46.2834,12.169,46.2834L87.562,46.2834C88.156,46.2834,88.637,45.7588,88.637,45.1108L88.637,43.4563L90.224,43.4563L90.225,41.6379L90.225,41.6379M90.225,29.5012L88.637,29.5012L88.637,27.8347C88.637,27.1867,88.156,26.661,87.563,26.661L12.168,26.661L12.168,26.661C11.574,26.661,11.092,27.1856,11.092,27.8347L11.092,29.5023L9.195,29.5023L9.195,31.3186L11.092,31.3186L11.092,32.9752C11.092,33.6222,11.574,34.1467,12.168,34.1467L87.561,34.1467C88.155,34.1467,88.636,33.6222,88.636,32.9752L88.636,31.3186L90.223,31.3186L90.225,29.5012L90.225,29.5012M90.225,17.3635L88.637,17.3635L88.637,15.6981C88.637,15.05,88.156,14.5244,87.563,14.5244L12.168,14.5244L12.168,14.5244C11.574,14.5244,11.092,15.0489,11.092,15.6981L11.092,17.3635L9.195,17.3635L9.195,19.1819L11.092,19.1819L11.092,20.8375C11.092,21.4855,11.574,22.009,12.168,22.009L87.561,22.009C88.155,22.009,88.636,21.4855,88.636,20.8375L88.636,19.1819L90.223,19.1819L90.225,17.3635L90.225,17.3635M90.225,5.228L88.637,5.228L88.637,3.5614C88.637,2.9134,88.156,2.3867,87.563,2.3867L12.168,2.3867L12.168,2.3867C11.574,2.3867,11.092,2.9134,11.092,3.5614L11.092,5.228L9.196,5.228L9.196,7.0453L9.196,7.0453L11.093,7.0453L11.093,8.7009C11.093,9.3478,11.575,9.8734,12.169,9.8734L87.562,9.8734C88.156,9.8734,88.637,9.3478,88.637,8.7009L88.637,7.0442L90.224,7.0442L90.225,5.228L90.225,5.228Z"/>
</svg>