<svg version="1.2" baseProfile="tiny" id="EdgeSVG_8UcLs" x="0px" y="0px" width="100px" height="109.28px" viewBox="0 0 100 109.28" xmlns:xlink="http://www.w3.org/1999/xlink" xmlns="http://www.w3.org/2000/svg">
  <linearGradient id="SVGID_1_" gradientUnits="userSpaceOnUse" x1="0" y1="54.6401" x2="100" y2="54.6401">
    <stop offset="0.1595" style="stop-color:#000000;stop-opacity:0.5"/>
    <stop offset="0.9387" style="stop-color:#000000;stop-opacity:0.5"/>
  </linearGradient>
  <path fill="url(#SVGID_1_)" d="M89.302,0L89.3,2.337c-0.376-0.578-1.021-0.959-1.737-0.959H12.168c-0.586,0-1.09,0.258-1.469,0.669&#xD;&#xA;&#x9;&#x9;L10.698,0H0v109.28h10.698l-0.001-1.943c0.377,0.394,0.898,0.638,1.472,0.638h75.393c0.677,0,1.359-0.484,1.74-1.009v2.314H100V0&#xD;&#xA;&#x9;&#x9;H89.302z M89.237,75.098c-0.379-0.541-0.986-0.897-1.675-0.897l-75.394,0.001c-0.578,0-1.102,0.248-1.479,0.647v-3.932&#xD;&#xA;&#x9;&#x9;c0.377,0.4,0.901,0.648,1.479,0.648h75.393c0.691,0,1.3-0.357,1.679-0.9L89.237,75.098z M89.245,62.972&#xD;&#xA;&#x9;&#x9;c-0.378-0.547-0.989-0.908-1.683-0.908H12.168c-0.579,0-1.104,0.25-1.482,0.651l0-3.938c0.379,0.402,0.903,0.652,1.482,0.652&#xD;&#xA;&#x9;&#x9;h75.393c0.695,0,1.309-0.361,1.687-0.911L89.245,62.972z M89.253,50.845c-0.378-0.555-0.992-0.918-1.69-0.918H12.168&#xD;&#xA;&#x9;&#x9;c-0.58,0-1.106,0.251-1.484,0.654l0-3.944c0.379,0.403,0.904,0.655,1.485,0.655h75.393c0.7,0,1.317-0.366,1.695-0.922&#xD;&#xA;&#x9;&#x9;L89.253,50.845z M89.262,38.718c-0.378-0.56-0.997-0.928-1.699-0.928H12.168c-0.582,0-1.108,0.253-1.487,0.658v-3.952&#xD;&#xA;&#x9;&#x9;c0.378,0.405,0.905,0.659,1.487,0.659h75.393c0.705,0,1.325-0.37,1.703-0.931L89.262,38.718z M89.27,26.591&#xD;&#xA;&#x9;&#x9;c-0.377-0.566-1-0.939-1.707-0.939H12.168c-0.583,0-1.111,0.255-1.49,0.662l0-3.958c0.379,0.407,0.906,0.662,1.49,0.662h75.393&#xD;&#xA;&#x9;&#x9;c0.709,0,1.334-0.374,1.711-0.942L89.27,26.591z M10.691,83.058c0.377,0.398,0.901,0.645,1.477,0.645h75.393&#xD;&#xA;&#x9;&#x9;c0.686,0,1.292-0.353,1.671-0.891l-0.003,4.414c-0.38-0.536-0.982-0.888-1.667-0.888H12.168c-0.576,0-1.098,0.248-1.477,0.644&#xD;&#xA;&#x9;&#x9;L10.691,83.058z M12.168,10.881h75.393c0.714,0,1.343-0.378,1.719-0.952l-0.002,4.534c-0.377-0.572-1.005-0.948-1.716-0.948H12.168&#xD;&#xA;&#x9;&#x9;c-0.585,0-1.113,0.255-1.492,0.665l0-3.965C11.055,10.624,11.583,10.881,12.168,10.881z M87.563,98.473H12.168&#xD;&#xA;&#x9;&#x9;c-0.575,0-1.096,0.245-1.474,0.642l0-3.917c0.378,0.396,0.9,0.641,1.475,0.641h75.393c0.682,0,1.283-0.349,1.663-0.879&#xD;&#xA;&#x9;&#x9;l-0.003,4.393C88.842,98.822,88.241,98.473,87.563,98.473z"/>
</svg>