<svg version="1.2" baseProfile="tiny" viewBox="0 0 56.0 15.5" xmlns:xlink="http://www.w3.org/1999/xlink" xmlns="http://www.w3.org/2000/svg">
<path style="fill:#ffffff;" d="M48.2502,0.0L7.7498,0.0L7.7498,0.0C3.477,0.0,0.0,3.477,0.0,7.75C0.0,12.023,3.477,15.5,7.7498,15.5L48.2502,15.5C52.523,15.5,56.0,12.023,56.0,7.75C56.0,3.477,52.523,0.0,48.2502,0.0M1.9998,7.75C1.9998,4.5799,4.5791,2.0,7.7498,2.0C10.9211,2.0,13.4999,4.5799,13.4999,7.75C13.4999,10.9201,10.9211,13.5,7.7498,13.5C4.5791,13.5,1.9998,10.921,1.9998,7.75M12.9282,13.5C14.5029,12.081,15.5002,10.0321,15.5002,7.75C15.5002,5.4679,14.5029,3.419,12.9282,2.0L43.073,2.0C41.4971,3.419,40.4998,5.4679,40.4998,7.75C40.4998,10.0321,41.4971,12.081,43.0718,13.5L12.9282,13.5L12.9282,13.5M48.2502,13.5C45.0789,13.5,42.5001,10.9201,42.5001,7.75C42.5001,4.5799,45.0789,2.0,48.2502,2.0C51.4209,2.0,54.0002,4.5799,54.0002,7.75C54.0002,10.921,51.4209,13.5,48.2502,13.5Z"/>
</svg>